# xmcd
#
# Track frame offsets:
#	150
#	17977
#	33712
#	49047
#	69656
#	89119
#	108244
#	123792
#	143925
#
# Disc length: 2200 seconds
#
# Revision: 2
# Processed by: cddbd v1.5.2PL0 Copyright (c) Steve Scherf et al.
# Submitted via: EZCDAudioConverter 8.0.2.1
#
DISCID=80089609
DTITLE=Dương Hiếu Nghĩa - Yêu Từ Ánh Mắt Đầu Tiên
DYEAR=2009
DGENRE=World Pop
TTITLE0=Yêu Từ Ánh Mắt Đầu Tiên
TTITLE1=Cảm giác khi được yêu
TTITLE2=Tan vỡ một giấc mơ
TTITLE3=Nhớ
TTITLE4=Xa
TTITLE5=Quá khứ tìm về
TTITLE6=Phút buôn lơi
TTITLE7=Một lần thôi
TTITLE8=Ký ức còn đây
EXTD=
EXTT0=
EXTT1=
EXTT2=
EXTT3=
EXTT4=
EXTT5=
EXTT6=
EXTT7=
EXTT8=
PLAYORDER=
